<?xml version="1.0" encoding="UTF-8"?>
<svg id="_图层_1" data-name="图层 1" xmlns="http://www.w3.org/2000/svg" viewBox="0 0 1080 1080">
  <defs>
    <style>
      .cls-1 {
        fill: #ffff90;
      }

      .cls-2 {
        stroke: #60f0c0;
      }

      .cls-2, .cls-3, .cls-4, .cls-5, .cls-6 {
        fill: none;
        stroke-miterlimit: 10;
      }

      .cls-2, .cls-4, .cls-6 {
        stroke-width: 48px;
      }

      .cls-3, .cls-5 {
        stroke-width: 32px;
      }

      .cls-3, .cls-6 {
        stroke: #20f020;
      }

      .cls-4 {
        stroke: #20e0f0;
      }

      .cls-5 {
        stroke: #a0a0a0;
      }
    </style>
  </defs>
  <rect class="cls-1" width="1080" height="1080" rx="216" ry="216"/>
  <g>
    <path class="cls-6" d="M819.54,806.67l-21.55,37.33c-5.72,9.9-16.28,16-27.71,16h-43.23c0-5.52-1.43-11.05-4.29-16l-45.52-78.85c-2.86-4.95-6.93-8.95-11.71-11.71l21.61-37.44c5.71-9.9,16.28-16,27.71-16h43.23c-.03,5.58,1.4,11.16,4.29,16.15l45.52,78.85c2.85,4.93,6.9,8.92,11.65,11.67Z"/>
    <path class="cls-6" d="M727.1444,220.0021l43.1037-.0022c11.4336.0037,21.9964,6.0989,27.7114,15.9975l21.615,37.4383c-4.7805,2.76-8.8546,6.7634-11.7114,11.7152l-45.5261,78.8465c-2.8568,4.9518-4.2859,10.4765-4.2861,15.9961l-43.229.0052c-11.4287.005-21.9964-6.0989-27.7114-15.9975l-21.615-37.4383c4.8474-2.764,8.9648-6.7924,11.8413-11.7902l45.5261-78.8465c2.8445-4.9331,4.275-10.4355,4.2815-15.9242Z"/>
    <path class="cls-6" d="M819.54,486.6379l-21.55,37.33c-5.72,9.9-16.28,16-27.71,16h-43.23c0-5.52-1.43-11.05-4.29-16l-45.52-78.85c-2.86-4.95-6.93-8.95-11.71-11.71l21.61-37.44c5.71-9.9,16.28-16,27.71-16h43.23c-.03,5.58,1.4,11.16,4.29,16.15l45.52,78.85c2.85,4.93,6.9,8.92,11.65,11.67Z"/>
    <path class="cls-6" d="M665.0108,324.1091l21.5537,37.3278c5.7136,9.9036,5.7164,22.0989.0014,31.9975l-21.615,37.4383c-4.7805-2.76-10.2846-4.2866-16.0014-4.2848l-91.0461-.0035c-5.7168.0018-11.2159,1.5266-15.9961,4.2861l-21.619-37.4348c-5.7187-9.895-5.7164-22.0989-.0014-31.9975l21.615-37.4383c4.8174,2.816,10.3648,4.3676,16.1313,4.3598l91.0461.0035c5.6945-.0032,11.1749-1.5156,15.9315-4.2542Z"/>
  </g>
  <g>
    <path class="cls-2" d="M649.525,749.1487h-91.0496c-11.4325,0-21.9966,6.0992-27.7128,16l-45.5248,78.8513c-5.7162,9.9008-5.7162,22.0992,0,32l45.5248,78.8513c5.7162,9.9008,16.2803,16,27.7128,16h91.0496c11.4325,0,21.9966-6.0992,27.7128-16l45.5248-78.8513c5.7162-9.9008,5.7162-22.0992,0-32l-45.5248-78.8513c-5.7162-9.9008-16.2803-16-27.7128-16Z"/>
    <path class="cls-2" d="M926.6531,589.3013h-91.0496c-11.4325,0-21.9966,6.0992-27.7128,16l-45.5248,78.8513c-5.7162,9.9008-5.7162,22.0992,0,32l45.5248,78.8513c5.7162,9.9008,16.2803,16,27.7128,16h91.0496c11.4325,0,21.9966-6.0992,27.7128-16l45.5248-78.8513c5.7162-9.9008,5.7162-22.0992,0-32l-45.5248-78.8513c-5.7162-9.9008-16.2803-16-27.7128-16Z"/>
    <path class="cls-4" d="M649.5248,429.1487h-91.0496c-11.4325,0-21.9966,6.0992-27.7128,16l-45.5248,78.8513c-5.7162,9.9008-5.7162,22.0992,0,32l45.5248,78.8513c5.7162,9.9008,16.2803,16,27.7128,16h91.0496c11.4325,0,21.9966-6.0992,27.7128-16l45.5248-78.8513c5.7162-9.9008,5.7162-22.0992,0-32l-45.5248-78.8513c-5.7162-9.9008-16.2803-16-27.7128-16Z"/>
    <path class="cls-4" d="M926.6529,269.1167h-91.0496c-11.4325,0-21.9966,6.0992-27.7128,16l-45.5248,78.8513c-5.7162,9.9008-5.7162,22.0992,0,32l45.5248,78.8513c5.7162,9.9008,16.2803,16,27.7128,16h91.0496c11.4325,0,21.9966-6.0992,27.7128-16l45.5248-78.8513c5.7162-9.9008,5.7162-22.0992,0-32l-45.5248-78.8513c-5.7162-9.9008-16.2803-16-27.7128-16Z"/>
    <path class="cls-4" d="M649.5248,109.1487h-91.0496c-11.4325,0-21.9966,6.0992-27.7128,16l-45.5248,78.8513c-5.7162,9.9008-5.7162,22.0992,0,32l45.5248,78.8513c5.7162,9.9008,16.2803,16,27.7128,16h91.0496c11.4325,0,21.9966-6.0992,27.7128-16l45.5248-78.8513c5.7162-9.9008,5.7162-22.0992,0-32l-45.5248-78.8513c-5.7162-9.9008-16.2803-16-27.7128-16Z"/>
  </g>
  <g id="_内矩形" data-name="内矩形">
    <rect class="cls-5" x="296" y="476" width="104" height="128" rx="24" ry="24"/>
    <rect class="cls-3" x="296" y="692" width="104" height="128" rx="24" ry="24"/>
    <rect class="cls-5" x="296" y="260" width="104" height="128" rx="24" ry="24"/>
    <rect class="cls-3" x="96" y="476" width="104" height="128" rx="24" ry="24"/>
    <rect class="cls-5" x="96" y="692" width="104" height="128" rx="24" ry="24"/>
    <rect class="cls-3" x="96" y="260" width="104" height="128" rx="24" ry="24"/>
  </g>
  <g id="_外矩形" data-name="外矩形">
    <rect class="cls-5" x="280" y="460" width="136" height="160" rx="24" ry="24"/>
    <rect class="cls-3" x="280" y="676" width="136" height="160" rx="24" ry="24"/>
    <rect class="cls-5" x="280" y="244" width="136" height="160" rx="24" ry="24"/>
    <rect class="cls-3" x="80" y="460" width="136" height="160" rx="24" ry="24"/>
    <rect class="cls-5" x="80" y="676" width="136" height="160" rx="24" ry="24"/>
    <rect class="cls-3" x="80" y="244" width="136" height="160" rx="24" ry="24"/>
  </g>
</svg>